<svg width="28" height="28" viewBox="0 0 28 28" fill="none" xmlns="http://www.w3.org/2000/svg">
<path d="M24.1883 3.70891C20.9956 2.44562 17.3786 1.75 14 1.75C10.5235 1.75 6.90156 2.43414 3.7975 3.67773C2.68953 4.12781 2.29688 4.375 2.29688 4.375L3.5 6.78125L5.55242 5.89859C8.07078 4.89617 10.8932 4.375 14.0279 4.375C17.1719 4.375 19.9391 4.87977 22.4908 5.91992L24.5 6.78125L25.7031 4.375C25.7031 4.375 25.3203 4.15625 24.1883 3.70891Z" fill="black"/>
<path d="M22.4033 7.70273C19.9145 6.70031 16.8525 6.125 14 6.125C11.1245 6.12734 8.27447 6.66323 5.59453 7.70547C5.58086 7.71094 5.08922 7.9368 4.55547 8.1818C4.96344 9.06883 5.53984 10.3234 5.76953 10.8248L14 26.25L23.5014 8.15719L22.412 7.70656L22.4033 7.70273ZM12.2724 10.6132C12.2507 10.949 12.1326 11.2714 11.9323 11.5418C11.732 11.8122 11.4581 12.0191 11.1432 12.1378C10.8283 12.2564 10.4859 12.2818 10.157 12.2108C9.82806 12.1398 9.52657 11.9755 9.28864 11.7376C9.0507 11.4997 8.88641 11.1982 8.81544 10.8693C8.74447 10.5403 8.76984 10.1979 8.88849 9.88307C9.00715 9.56819 9.21407 9.2942 9.48446 9.09392C9.75486 8.89364 10.0773 8.77556 10.413 8.75383C10.6611 8.73883 10.9096 8.77665 11.142 8.86478C11.3744 8.95292 11.5854 9.08937 11.7611 9.26511C11.9369 9.44086 12.0733 9.65189 12.1615 9.88428C12.2496 10.1167 12.2874 10.3651 12.2724 10.6132ZM15.7724 17.6132C15.7507 17.949 15.6326 18.2714 15.4323 18.5418C15.232 18.8122 14.9581 19.0191 14.6432 19.1378C14.3283 19.2564 13.9859 19.2818 13.657 19.2108C13.3281 19.1398 13.0266 18.9755 12.7886 18.7376C12.5507 18.4997 12.3864 18.1982 12.3154 17.8693C12.2445 17.5403 12.2698 17.1979 12.3885 16.8831C12.5071 16.5682 12.7141 16.2942 12.9845 16.0939C13.2549 15.8936 13.5773 15.7756 13.913 15.7538C14.1611 15.7388 14.4096 15.7766 14.642 15.8648C14.8744 15.9529 15.0854 16.0894 15.2611 16.2651C15.4369 16.4409 15.5733 16.6519 15.6615 16.8843C15.7496 17.1167 15.7874 17.3651 15.7724 17.6132ZM19.2724 11.4882C19.2507 11.824 19.1326 12.1464 18.9323 12.4168C18.732 12.6872 18.4581 12.8941 18.1432 13.0128C17.8283 13.1314 17.4859 13.1568 17.157 13.0858C16.8281 13.0148 16.5266 12.8505 16.2886 12.6126C16.0507 12.3747 15.8864 12.0732 15.8154 11.7443C15.7445 11.4153 15.7698 11.0729 15.8885 10.7581C16.0072 10.4432 16.2141 10.1692 16.4845 9.96892C16.7549 9.76864 17.0773 9.65056 17.413 9.62883C17.6611 9.61383 17.9096 9.65165 18.142 9.73978C18.3744 9.82792 18.5854 9.96437 18.7611 10.1401C18.9369 10.3159 19.0733 10.5269 19.1615 10.7593C19.2496 10.9917 19.2874 11.2401 19.2724 11.4882Z" fill="black"/>
</svg>
