<svg width="24" height="26" viewBox="0 0 24 26" fill="none" xmlns="http://www.w3.org/2000/svg">
<path d="M22.1883 2.70891C18.9956 1.44562 15.3786 0.75 12 0.75C8.52352 0.75 4.90156 1.43414 1.7975 2.67773C0.689531 3.12781 0.296875 3.375 0.296875 3.375L1.5 5.78125L3.55242 4.89859C6.07078 3.89617 8.8932 3.375 12.0279 3.375C15.1719 3.375 17.9391 3.87977 20.4908 4.91992L22.5 5.78125L23.7031 3.375C23.7031 3.375 23.3203 3.15625 22.1883 2.70891Z" fill="#DE491E"/>
<path d="M20.4033 6.70273C17.9145 5.70031 14.8525 5.125 12 5.125C9.12453 5.12734 6.27447 5.66323 3.59453 6.70547C3.58086 6.71094 3.08922 6.9368 2.55547 7.1818C2.96344 8.06883 3.53984 9.32336 3.76953 9.82484L12 25.25L21.5014 7.15719L20.412 6.70656L20.4033 6.70273ZM10.2724 9.6132C10.2507 9.94899 10.1326 10.2714 9.93233 10.5418C9.73205 10.8122 9.45806 11.0191 9.14318 11.1378C8.82831 11.2564 8.4859 11.2818 8.15698 11.2108C7.82806 11.1398 7.52657 10.9755 7.28864 10.7376C7.0507 10.4997 6.88641 10.1982 6.81544 9.86927C6.74447 9.54035 6.76984 9.19794 6.88849 8.88307C7.00715 8.56819 7.21407 8.2942 7.48446 8.09392C7.75486 7.89364 8.07726 7.77556 8.41305 7.75383C8.66113 7.73883 8.90958 7.77665 9.14197 7.86478C9.37436 7.95292 9.58539 8.08937 9.76114 8.26511C9.93688 8.44086 10.0733 8.65189 10.1615 8.88428C10.2496 9.11667 10.2874 9.36512 10.2724 9.6132ZM13.7724 16.6132C13.7507 16.949 13.6326 17.2714 13.4323 17.5418C13.232 17.8122 12.9581 18.0191 12.6432 18.1378C12.3283 18.2564 11.9859 18.2818 11.657 18.2108C11.3281 18.1398 11.0266 17.9755 10.7886 17.7376C10.5507 17.4997 10.3864 17.1982 10.3154 16.8693C10.2445 16.5403 10.2698 16.1979 10.3885 15.8831C10.5071 15.5682 10.7141 15.2942 10.9845 15.0939C11.2549 14.8936 11.5773 14.7756 11.913 14.7538C12.1611 14.7388 12.4096 14.7766 12.642 14.8648C12.8744 14.9529 13.0854 15.0894 13.2611 15.2651C13.4369 15.4409 13.5733 15.6519 13.6615 15.8843C13.7496 16.1167 13.7874 16.3651 13.7724 16.6132ZM17.2724 10.4882C17.2507 10.824 17.1326 11.1464 16.9323 11.4168C16.732 11.6872 16.4581 11.8941 16.1432 12.0128C15.8283 12.1314 15.4859 12.1568 15.157 12.0858C14.8281 12.0148 14.5266 11.8505 14.2886 11.6126C14.0507 11.3747 13.8864 11.0732 13.8154 10.7443C13.7445 10.4153 13.7698 10.0729 13.8885 9.75807C14.0072 9.44319 14.2141 9.1692 14.4845 8.96892C14.7549 8.76864 15.0773 8.65056 15.413 8.62883C15.6611 8.61383 15.9096 8.65165 16.142 8.73978C16.3744 8.82792 16.5854 8.96437 16.7611 9.14011C16.9369 9.31586 17.0733 9.52689 17.1615 9.75928C17.2496 9.99167 17.2874 10.2401 17.2724 10.4882Z" fill="#DE491E"/>
</svg>
