<svg width="20" height="28" viewBox="0 0 20 28" fill="none" xmlns="http://www.w3.org/2000/svg">
<path d="M9.8 13.3C8.87174 13.3 7.9815 12.9313 7.32513 12.2749C6.66875 11.6185 6.3 10.7283 6.3 9.8C6.3 8.87174 6.66875 7.9815 7.32513 7.32513C7.9815 6.66875 8.87174 6.3 9.8 6.3C10.7283 6.3 11.6185 6.66875 12.2749 7.32513C12.9313 7.9815 13.3 8.87174 13.3 9.8C13.3 10.2596 13.2095 10.7148 13.0336 11.1394C12.8577 11.564 12.5999 11.9499 12.2749 12.2749C11.9499 12.5999 11.564 12.8577 11.1394 13.0336C10.7148 13.2095 10.2596 13.3 9.8 13.3V13.3ZM9.8 0C7.20088 0 4.70821 1.0325 2.87035 2.87035C1.0325 4.70821 0 7.20088 0 9.8C0 17.15 9.8 28 9.8 28C9.8 28 19.6 17.15 19.6 9.8C19.6 7.20088 18.5675 4.70821 16.7296 2.87035C14.8918 1.0325 12.3991 0 9.8 0V0Z" fill="#EB3E0C"/>
</svg>