<svg width="24" height="24" viewBox="0 0 24 24" fill="none" xmlns="http://www.w3.org/2000/svg">
<path d="M12 16.6667C14.5773 16.6667 16.6667 14.5773 16.6667 12C16.6667 9.42267 14.5773 7.33333 12 7.33333C9.42267 7.33333 7.33334 9.42267 7.33334 12C7.33334 14.5773 9.42267 16.6667 12 16.6667Z" fill="black"/>
<path d="M13.1667 2.74717V0.333334H10.8333V2.74717C8.78035 3.0093 6.87247 3.94553 5.409 5.409C3.94554 6.87246 3.0093 8.78035 2.74717 10.8333H0.333336V13.1667H2.74717C3.00891 15.2198 3.94503 17.1279 5.40856 18.5914C6.8721 20.055 8.7802 20.9911 10.8333 21.2528V23.6667H13.1667V21.2528C15.2199 20.9913 17.1281 20.0552 18.5917 18.5917C20.0552 17.1281 20.9913 15.2199 21.2528 13.1667H23.6667V10.8333H21.2528C20.9911 8.7802 20.055 6.8721 18.5914 5.40856C17.1279 3.94503 15.2198 3.00891 13.1667 2.74717V2.74717ZM12 19C8.1395 19 5 15.8605 5 12C5 8.1395 8.1395 5 12 5C15.8605 5 19 8.1395 19 12C19 15.8605 15.8605 19 12 19Z" fill="black"/>
</svg>
