<svg width="24" height="28" viewBox="0 0 24 35" fill="none" xmlns="http://www.w3.org/2000/svg">
<path d="M12 16.2857C10.8634 16.2857 9.77327 15.8342 8.96954 15.0305C8.16582 14.2267 7.71429 13.1366 7.71429 12C7.71429 10.8634 8.16582 9.77327 8.96954 8.96954C9.77327 8.16581 10.8634 7.71429 12 7.71429C13.1366 7.71429 14.2267 8.16581 15.0305 8.96954C15.8342 9.77327 16.2857 10.8634 16.2857 12C16.2857 12.5628 16.1749 13.1201 15.9595 13.6401C15.7441 14.16 15.4284 14.6325 15.0305 15.0305C14.6325 15.4284 14.16 15.7441 13.6401 15.9595C13.1201 16.1749 12.5628 16.2857 12 16.2857ZM12 0C8.8174 0 5.76516 1.26428 3.51472 3.51472C1.26428 5.76515 0 8.8174 0 12C0 21 12 34.2857 12 34.2857C12 34.2857 24 21 24 12C24 8.8174 22.7357 5.76515 20.4853 3.51472C18.2348 1.26428 15.1826 0 12 0Z" fill="#EB3E0C"/>
</svg>
